  <svg
    xmlns="http://www.w3.org/2000/svg"
    width="149.44"
    height="11.11"
    viewBox="0 0 149.44 11.11"
  >
    <path d="M5.944 5.61H8.24v2.936q-1.261.555-2.507.555c-1.133 0-2.04-.33-2.717-1C2.34 7.43 2 6.6 2 5.62q0-1.554 1.053-2.584 1.054-1.031 2.64-1.03.578-.001 1.097.125c.347.09.784.24 1.313.47v1.01q-1.225-.72-2.43-.72-1.122 0-1.89.78c-.768.78-.768 1.15-.768 1.9 0 .79.256 1.43.77 1.93q.767.75 1.978.75.588 0 1.406-.27l.09-.03V6.5H5.94v-.89zM9.7 9.023V2.095h1.716q1.037 0 1.648.52.61.52.61 1.41 0 .603-.3 1.044-.298.435-.856.66c.22.14.432.34.642.59s.503.69.882 1.31c.238.39.43.69.573.89l.362.49H13.81l-.298-.46a1 1 0 0 0-.06-.09l-.19-.28-.303-.51-.33-.54c-.2-.288-.39-.51-.56-.68s-.32-.29-.46-.367c-.14-.07-.37-.11-.69-.11h-.26V9H9.7zm1.275-6.086h-.294v2.187h.38q.75 0 1.02-.13a.9.9 0 0 0 .43-.388c.11-.174.16-.372.16-.593s-.05-.415-.17-.592a.9.9 0 0 0-.48-.37c-.21-.07-.55-.11-1.03-.11zm4.755-.842h3.88v.882h-2.9V5.09h2.803v.887H16.71V8.13h2.995v.88H15.73zm7.203-.04h.688l3.07 6.97h-1l-.91-2.058h-2.92L21 9.023h-1.006l2.94-6.97zm1.44 4.03-1.105-2.508-1.024 2.508h2.128zm1.48-4h5.716v.882h-2.39v6.056h-.98V2.967h-2.35v-.883zm6.642.01h3.88v.882h-2.9V5.09h2.802v.887h-2.802V8.13h2.993v.88h-3.973zm5.045 6.928V2.095h1.715q1.038 0 1.648.52t.61 1.41q0 .603-.3 1.044-.299.435-.857.66c.22.14.433.34.642.59s.503.69.88 1.31c.24.39.43.69.575.89l.362.49H41.65l-.298-.46a1 1 0 0 0-.06-.09l-.19-.28-.302-.5-.33-.54c-.202-.29-.39-.51-.556-.68-.168-.17-.32-.29-.456-.37q-.205-.112-.685-.11h-.256V9h-.98zm1.274-6.086h-.294v2.187h.373q.745 0 1.02-.13a.95.95 0 0 0 .432-.388q.156-.261.155-.593-.001-.328-.17-.592a.94.94 0 0 0-.484-.37c-.21-.07-.552-.11-1.032-.11zm9.983 4.817v1.27H43.58v-6.93h1.705v5.66zm4.585-5.75q1.749 0 2.832 1.07 1.083 1.066 1.083 2.486 0 1.439-1.098 2.494c-.74.703-1.67 1.056-2.82 1.056-1.16 0-2.11-.35-2.83-1.052-.73-.7-1.1-1.532-1.1-2.498q0-1.425 1.08-2.49c.72-.71 1.67-1.065 2.84-1.065zm0 5.67q.97 0 1.563-.584.593-.582.592-1.53.001-.952-.592-1.53-.593-.582-1.563-.582-.976 0-1.57.58t-.596 1.533c0 .63.2 1.15.596 1.53.396.39.92.59 1.57.59zm12.08-5.58v6.93h-1.44l-3.776-4.44v4.44H58.54v-6.93h1.563l3.654 4.234V2.095h1.706zm1.528 0h3.02q1.746 0 2.765.97 1.015.967 1.015 2.506 0 1.61-1.03 2.533c-.687.61-1.667.92-2.94.92h-2.828V2.095zm1.706 1.27v4.39h1.11c.723 0 1.274-.205 1.657-.605q.573-.615.573-1.59c0-.68-.194-1.22-.58-1.61-.39-.39-.943-.59-1.67-.59h-1.09zm9.977-1.36q1.749 0 2.832 1.07 1.082 1.066 1.082 2.486 0 1.439-1.097 2.494T78.673 9.11q-1.738 0-2.83-1.052-1.094-1.05-1.094-2.498 0-1.425 1.08-2.49c.72-.71 1.67-1.065 2.84-1.065zm0 5.67q.97 0 1.564-.584.592-.582.592-1.53 0-.952-.6-1.53c-.4-.388-.92-.582-1.57-.582s-1.17.193-1.57.58q-.6.58-.6 1.533c0 .63.19 1.15.59 1.53.39.39.92.59 1.57.59zm12.08-5.58v6.93h-1.44l-3.776-4.44v4.44h-1.703v-6.93h1.563L89.05 6.33V2.095h1.703zm3.715-.04h.688l3.07 6.97H97.22l-.912-2.057h-2.92l-.854 2.056h-1.007l2.94-6.97zm1.44 4.03L94.8 3.578l-1.024 2.508h2.13zm7.627-3.99h.984v3.933c0 .53-.04.934-.12 1.204-.08.28-.17.5-.29.68s-.25.34-.42.49c-.54.48-1.25.71-2.13.71-.89 0-1.61-.23-2.15-.7-.16-.14-.3-.31-.41-.48-.11-.18-.21-.4-.28-.66s-.11-.67-.11-1.23V2.1h.98v3.93c0 .65.07 1.103.22 1.36.15.25.37.457.67.61.3.154.65.23 1.06.23.58 0 1.05-.153 1.42-.46q.287-.249.413-.586c.08-.226.124-.61.124-1.156v-3.93zm1.76-.01h5.715v.883h-2.384v6.056h-.986V2.967h-2.345zm11.465.01h.98v6.93h-.98V6.006h-3.845v3.016h-.98V2.095h.98V5.09h3.845zm5.847-.1q1.587 0 2.64 1.018 1.058 1.016 1.057 2.55 0 1.53-1.065 2.536c-.71.67-1.61 1.004-2.69 1.004q-1.545 0-2.58-1.004c-.69-.67-1.03-1.51-1.03-2.517 0-1.03.34-1.89 1.03-2.56.69-.68 1.56-1.02 2.62-1.02zm.04.943q-1.176 0-1.93.744c-.505.5-.758 1.13-.758 1.9 0 .75.25 1.37.75 1.87s1.14.75 1.9.75 1.4-.25 1.91-.76.76-1.13.76-1.89c0-.73-.26-1.35-.77-1.85s-1.14-.75-1.88-.75zm4.89 6.086V2.095h1.715q1.04 0 1.65.52.608.52.608 1.41 0 .603-.298 1.044-.3.435-.857.66c.22.14.432.34.642.59s.503.69.882 1.31c.23.39.42.69.57.89l.36.49h-1.17l-.3-.46a1 1 0 0 0-.06-.09l-.19-.27-.31-.51-.33-.54c-.21-.29-.39-.52-.56-.68a2.3 2.3 0 0 0-.46-.37q-.21-.12-.69-.12h-.26V9h-.978zm1.274-6.086h-.29v2.187h.37q.75 0 1.02-.13a1 1 0 0 0 .44-.388c.11-.174.16-.372.16-.593s-.05-.415-.17-.592a.9.9 0 0 0-.48-.37c-.21-.07-.55-.11-1.03-.11zm4.77-.842h.98v6.928h-.98zm1.92-.01h5.72v.882h-2.39v6.056h-.98V2.967h-2.35zm10.76.01h1.19l-2.53 3.262v3.667h-1V5.357l-2.52-3.262h1.18l1.84 2.387 1.86-2.387z"></path>
  </svg>