  <svg
    xmlns="http://www.w3.org/2000/svg"
    xmlSpace="preserve"
    id="svg2386"
    width="1000"
    height="265.021"
    x="0"
    y="0"
    version="1.1"
    viewBox="0 0 1000 265.021"
  >
    <g fill="#0019A8">
      <path d="M248.832 132.499c0 47.217-38.304 85.503-85.517 85.503-47.226 0-85.494-38.286-85.494-85.503 0-47.208 38.268-85.485 85.494-85.485 47.213 0 85.517 38.277 85.517 85.485M163.316 0C90.123 0 30.794 59.325 30.794 132.499c0 73.188 59.329 132.522 132.522 132.522 73.179 0 132.504-59.334 132.504-132.522C295.819 59.325 236.494 0 163.316 0"></path>
      <path d="M0 105.75h326.146v53.603H0zM449.921 43.438v67.402h-15.903V43.438h-23.606V29.25h63.12v14.188zM514.018 62.888c-5.627 0-9.906 1.589-15.168 5.871v42.077h-14.066V51.633h13.209v6.485c4.039-5.384 8.809-7.83 15.289-7.83 1.837 0 2.816.122 5.145.614v12.595a15.3 15.3 0 0 0-4.409-.609M560.501 110.838v-5.014c-5.136 3.913-10.889 6.358-17.735 6.358-11.255 0-18.719-7.094-18.719-17.613 0-13.579 13.457-22.139 35.597-23.241-.366-6.607-4.035-9.174-12.108-9.174-6.728 0-13.331 2.08-19.328 5.627l3.055-14.066c6.85-2.45 12.604-3.425 19.084-3.425 7.708 0 13.949 1.954 18.227 6.115 3.669 3.547 5.14 8.439 5.14 16.39v38.043zm-.857-29.847c-14.31 1.959-21.16 5.871-21.16 12.112 0 4.278 3.055 7.216 8.195 7.216 3.913 0 6.972-1.223 12.965-4.283zM629.004 110.838V77.566c0-9.418-3.795-14.31-12.112-14.31-4.892 0-8.804 1.71-12.965 5.014v42.569h-14.071V51.636h13.214v5.136c4.283-4.404 10.767-6.48 16.025-6.48 16.147 0 23.976 9.418 23.976 24.215v36.332h-14.067zM679.519 112.183c-9.418 0-17.365-3.06-23.85-7.094v-13.7c6.602 4.77 15.655 8.809 23.85 8.809 5.262 0 8.317-1.715 8.317-5.262 0-4.278-4.278-5.871-10.763-7.83-13.087-3.913-22.627-7.216-22.627-19.324 0-10.646 9.54-17.491 22.505-17.491 7.094 0 13.335 1.589 20.181 5.257v12.965c-6.358-3.913-13.574-6.359-18.714-6.359-6.724 0-8.804 2.812-8.804 5.257 0 3.303 2.08 4.526 11.133 6.972 12.108 3.303 21.774 7.099 21.774 19.942 0 11.13-9.297 17.858-23.002 17.858M741.66 112.183c-5.257 0-9.662-1.345-13.579-4.282v25.691h-14.062V51.635h13.204v4.648c3.673-3.425 8.813-5.993 14.928-5.993 17.121 0 28.376 13.087 28.376 31.07.001 17.37-10.518 30.823-28.867 30.823m-2.568-48.806c-4.039 0-7.952 1.467-11.011 3.425v29.726c2.816 1.954 6.241 3.299 11.62 3.299 10.154 0 16.39-6.358 16.39-17.735.001-11.864-6.236-18.715-16.999-18.715M810.282 112.185c-17.126 0-30.949-13.823-30.949-30.949s13.823-30.949 30.949-30.949S841.23 64.11 841.23 81.236s-13.822 30.949-30.948 30.949m0-48.074c-9.297 0-16.512 7.46-16.512 17.126 0 9.54 7.094 17.126 16.512 17.126 9.422 0 16.517-7.586 16.517-17.126s-7.095-17.126-16.517-17.126M883.308 62.888c-5.627 0-9.906 1.589-15.167 5.871v42.077h-14.066V51.633h13.209v6.485c4.039-5.384 8.809-7.83 15.289-7.83 1.837 0 2.816.122 5.14.614v12.595a15.3 15.3 0 0 0-4.405-.609M921.594 112.183c-12.843 0-21.531-6.607-21.531-20.673V63.134h-9.784V51.635h9.784V37.199h14.071v14.436h21.404v11.499h-21.404v27.767c0 3.181 0 9.296 10.149 9.296 3.06 0 7.221-1.345 11.869-3.425v12.843c-4.282 1.711-9.296 2.568-14.558 2.568M443.315 160.381c-8.195 0-10.397 5.749-10.397 13.579h19.82v11.128h-19.82v48.075h-14.066v-48.075h-8.931V173.96h8.931c0-16.882 6.607-24.956 21.038-24.956 5.14 0 10.28.736 14.314 1.837v12.108c-2.811-1.345-5.993-2.568-10.889-2.568M488.086 234.509c-17.126 0-30.949-13.823-30.949-30.949s13.823-30.949 30.949-30.949 30.948 13.823 30.948 30.949-13.822 30.949-30.948 30.949m0-48.074c-9.297 0-16.512 7.46-16.512 17.126 0 9.54 7.094 17.126 16.512 17.126 9.422 0 16.512-7.586 16.512-17.126s-7.09-17.126-16.512-17.126M561.112 185.212c-5.627 0-9.906 1.589-15.167 5.871v42.077h-14.071v-59.203h13.213v6.485c4.039-5.384 8.804-7.83 15.289-7.83 1.837 0 2.816.122 5.14.614v12.595a15.3 15.3 0 0 0-4.404-.609M605.88 233.162v-81.59h15.902v66.667h34.004v14.923zM693.585 234.509c-17.126 0-30.949-13.823-30.949-30.949s13.823-30.949 30.949-30.949 30.948 13.823 30.948 30.949-13.822 30.949-30.948 30.949m0-48.074c-9.292 0-16.512 7.46-16.512 17.126 0 9.54 7.094 17.126 16.512 17.126s16.517-7.586 16.517-17.126-7.099-17.126-16.517-17.126M776.521 233.162V199.89c0-9.418-3.791-14.31-12.112-14.31-4.892 0-8.804 1.71-12.965 5.014v42.569h-14.066V173.96h13.209v5.136c4.283-4.404 10.767-6.48 16.029-6.48 16.142 0 23.972 9.418 23.972 24.215v36.332h-14.067zM845.996 233.161v-4.648c-3.177 3.303-8.317 5.993-14.432 5.993-17.37 0-28.868-13.087-28.868-31.066 0-17.37 10.519-30.827 28.868-30.827 5.018 0 10.276 2.08 13.579 4.892v-25.93h14.066v81.586zm-.853-44.279c-2.816-1.958-6.241-3.303-11.62-3.303-10.154 0-16.395 6.363-16.395 17.126 0 11.377 6.241 18.836 17.004 18.836 4.648 0 8.195-1.345 11.011-3.303zM903.001 234.509c-17.126 0-30.949-13.823-30.949-30.949s13.823-30.949 30.949-30.949c17.121 0 30.948 13.823 30.948 30.949s-13.827 30.949-30.948 30.949m0-48.074c-9.297 0-16.517 7.46-16.517 17.126 0 9.54 7.099 17.126 16.517 17.126s16.512-7.586 16.512-17.126-7.094-17.126-16.512-17.126M985.934 233.162V199.89c0-9.418-3.791-14.31-12.108-14.31-4.892 0-8.809 1.71-12.965 5.014v42.569H946.79V173.96h13.209v5.136c4.287-4.404 10.767-6.48 16.029-6.48 16.147 0 23.972 9.418 23.972 24.215v36.332h-14.066z"></path>
    </g>
  </svg>