<?xml version="1.0" encoding="utf-8"?>
<!-- Generator: Adobe Illustrator 23.0.1, SVG Export Plug-In . SVG Version: 6.00 Build 0)  -->
<svg version="1.1"
	 id="svg2386" inkscape:output_extension="org.inkscape.output.svg.inkscape" inkscape:version="0.48.4 r9939" sodipodi:docname="TfL_mark.svg" sodipodi:version="0.32" xmlns:cc="http://creativecommons.org/ns#" xmlns:dc="http://purl.org/dc/elements/1.1/" xmlns:inkscape="http://www.inkscape.org/namespaces/inkscape" xmlns:rdf="http://www.w3.org/1999/02/22-rdf-syntax-ns#" xmlns:sodipodi="http://sodipodi.sourceforge.net/DTD/sodipodi-0.dtd" xmlns:svg="http://www.w3.org/2000/svg"
	 xmlns="http://www.w3.org/2000/svg" xmlns:xlink="http://www.w3.org/1999/xlink" x="0px" y="0px" width="1000px"
	 height="265.021px" viewBox="0 0 1000 265.021" enable-background="new 0 0 1000 265.021" xml:space="preserve">
<g>
	<path fill="#0019A8" d="M248.832,132.499c0,47.217-38.304,85.503-85.517,85.503c-47.226,0-85.494-38.286-85.494-85.503
		c0-47.208,38.268-85.485,85.494-85.485C210.528,47.014,248.832,85.291,248.832,132.499 M163.316,0
		C90.123,0,30.794,59.325,30.794,132.499c0,73.188,59.329,132.522,132.522,132.522c73.179,0,132.504-59.334,132.504-132.522
		C295.819,59.325,236.494,0,163.316,0"/>
	<rect y="105.75" fill="#0019A8" width="326.146" height="53.603"/>
	<polygon fill="#0019A8" points="449.921,43.438 449.921,110.84 434.018,110.84 434.018,43.438 410.412,43.438 410.412,29.25 
		473.532,29.25 473.532,43.438 	"/>
	<path fill="#0019A8" d="M514.018,62.888c-5.627,0-9.906,1.589-15.168,5.871v42.077h-14.066V51.633h13.209v6.485
		c4.039-5.384,8.809-7.83,15.289-7.83c1.837,0,2.816,0.122,5.145,0.614v12.595C516.708,63.01,515.367,62.888,514.018,62.888"/>
	<path fill="#0019A8" d="M560.501,110.838v-5.014c-5.136,3.913-10.889,6.358-17.735,6.358c-11.255,0-18.719-7.094-18.719-17.613
		c0-13.579,13.457-22.139,35.597-23.241c-0.366-6.607-4.035-9.174-12.108-9.174c-6.728,0-13.331,2.08-19.328,5.627l3.055-14.066
		c6.85-2.45,12.604-3.425,19.084-3.425c7.708,0,13.949,1.954,18.227,6.115c3.669,3.547,5.14,8.439,5.14,16.39v38.043H560.501z
		 M559.644,80.991c-14.31,1.959-21.16,5.871-21.16,12.112c0,4.278,3.055,7.216,8.195,7.216c3.913,0,6.972-1.223,12.965-4.283V80.991
		z"/>
	<path fill="#0019A8" d="M629.004,110.838V77.566c0-9.418-3.795-14.31-12.112-14.31c-4.892,0-8.804,1.71-12.965,5.014v42.569
		h-14.071V51.636h13.214v5.136c4.283-4.404,10.767-6.48,16.025-6.48c16.147,0,23.976,9.418,23.976,24.215v36.332H629.004z"/>
	<path fill="#0019A8" d="M679.519,112.183c-9.418,0-17.365-3.06-23.85-7.094V91.389c6.602,4.77,15.655,8.809,23.85,8.809
		c5.262,0,8.317-1.715,8.317-5.262c0-4.278-4.278-5.871-10.763-7.83c-13.087-3.913-22.627-7.216-22.627-19.324
		c0-10.646,9.54-17.491,22.505-17.491c7.094,0,13.335,1.589,20.181,5.257v12.965c-6.358-3.913-13.574-6.359-18.714-6.359
		c-6.724,0-8.804,2.812-8.804,5.257c0,3.303,2.08,4.526,11.133,6.972c12.108,3.303,21.774,7.099,21.774,19.942
		C702.521,105.455,693.224,112.183,679.519,112.183"/>
	<path fill="#0019A8" d="M741.66,112.183c-5.257,0-9.662-1.345-13.579-4.282v25.691h-14.062V51.635h13.204v4.648
		c3.673-3.425,8.813-5.993,14.928-5.993c17.121,0,28.376,13.087,28.376,31.07C770.528,98.73,760.009,112.183,741.66,112.183
		 M739.092,63.377c-4.039,0-7.952,1.467-11.011,3.425v29.726c2.816,1.954,6.241,3.299,11.62,3.299
		c10.154,0,16.39-6.358,16.39-17.735C756.092,70.228,749.855,63.377,739.092,63.377"/>
	<path fill="#0019A8" d="M810.282,112.185c-17.126,0-30.949-13.823-30.949-30.949s13.823-30.949,30.949-30.949
		c17.126,0,30.948,13.823,30.948,30.949S827.408,112.185,810.282,112.185 M810.282,64.111c-9.297,0-16.512,7.46-16.512,17.126
		c0,9.54,7.094,17.126,16.512,17.126c9.422,0,16.517-7.586,16.517-17.126C826.799,71.697,819.704,64.111,810.282,64.111"/>
	<path fill="#0019A8" d="M883.308,62.888c-5.627,0-9.906,1.589-15.167,5.871v42.077h-14.066V51.633h13.209v6.485
		c4.039-5.384,8.809-7.83,15.289-7.83c1.837,0,2.816,0.122,5.14,0.614v12.595C885.998,63.01,884.657,62.888,883.308,62.888"/>
	<path fill="#0019A8" d="M921.594,112.183c-12.843,0-21.531-6.607-21.531-20.673V63.134h-9.784V51.635h9.784V37.199h14.071v14.436
		h21.404v11.499h-21.404v27.767c0,3.181,0,9.296,10.149,9.296c3.06,0,7.221-1.345,11.869-3.425v12.843
		C931.87,111.326,926.856,112.183,921.594,112.183"/>
	<path fill="#0019A8" d="M443.315,160.381c-8.195,0-10.397,5.749-10.397,13.579h19.82v11.128h-19.82v48.075h-14.066v-48.075h-8.931
		V173.96h8.931c0-16.882,6.607-24.956,21.038-24.956c5.14,0,10.28,0.736,14.314,1.837v12.108
		C451.393,161.604,448.211,160.381,443.315,160.381"/>
	<path fill="#0019A8" d="M488.086,234.509c-17.126,0-30.949-13.823-30.949-30.949s13.823-30.949,30.949-30.949
		c17.126,0,30.948,13.823,30.948,30.949S505.212,234.509,488.086,234.509 M488.086,186.435c-9.297,0-16.512,7.46-16.512,17.126
		c0,9.54,7.094,17.126,16.512,17.126c9.422,0,16.512-7.586,16.512-17.126C504.598,194.021,497.508,186.435,488.086,186.435"/>
	<path fill="#0019A8" d="M561.112,185.212c-5.627,0-9.906,1.589-15.167,5.871v42.077h-14.071v-59.203h13.213v6.485
		c4.039-5.384,8.804-7.83,15.289-7.83c1.837,0,2.816,0.122,5.14,0.614v12.595C563.801,185.334,562.456,185.212,561.112,185.212"/>
	<polygon fill="#0019A8" points="605.88,233.162 605.88,151.572 621.782,151.572 621.782,218.239 655.786,218.239 655.786,233.162 	
		"/>
	<path fill="#0019A8" d="M693.585,234.509c-17.126,0-30.949-13.823-30.949-30.949s13.823-30.949,30.949-30.949
		c17.126,0,30.948,13.823,30.948,30.949S710.711,234.509,693.585,234.509 M693.585,186.435c-9.292,0-16.512,7.46-16.512,17.126
		c0,9.54,7.094,17.126,16.512,17.126c9.418,0,16.517-7.586,16.517-17.126C710.102,194.021,703.003,186.435,693.585,186.435"/>
	<path fill="#0019A8" d="M776.521,233.162V199.89c0-9.418-3.791-14.31-12.112-14.31c-4.892,0-8.804,1.71-12.965,5.014v42.569
		h-14.066v-59.203h13.209v5.136c4.283-4.404,10.767-6.48,16.029-6.48c16.142,0,23.972,9.418,23.972,24.215v36.332H776.521z"/>
	<path fill="#0019A8" d="M845.996,233.161v-4.648c-3.177,3.303-8.317,5.993-14.432,5.993c-17.37,0-28.868-13.087-28.868-31.066
		c0-17.37,10.519-30.827,28.868-30.827c5.018,0,10.276,2.08,13.579,4.892v-25.93h14.066v81.586H845.996z M845.143,188.882
		c-2.816-1.958-6.241-3.303-11.62-3.303c-10.154,0-16.395,6.363-16.395,17.126c0,11.377,6.241,18.836,17.004,18.836
		c4.648,0,8.195-1.345,11.011-3.303V188.882z"/>
	<path fill="#0019A8" d="M903.001,234.509c-17.126,0-30.949-13.823-30.949-30.949s13.823-30.949,30.949-30.949
		c17.121,0,30.948,13.823,30.948,30.949S920.122,234.509,903.001,234.509 M903.001,186.435c-9.297,0-16.517,7.46-16.517,17.126
		c0,9.54,7.099,17.126,16.517,17.126c9.418,0,16.512-7.586,16.512-17.126C919.513,194.021,912.419,186.435,903.001,186.435"/>
	<path fill="#0019A8" d="M985.934,233.162V199.89c0-9.418-3.791-14.31-12.108-14.31c-4.892,0-8.809,1.71-12.965,5.014v42.569H946.79
		v-59.203h13.209v5.136c4.287-4.404,10.767-6.48,16.029-6.48c16.147,0,23.972,9.418,23.972,24.215v36.332H985.934z"/>
</g>
</svg>
